<?xml version="1.0" encoding="UTF-8" standalone="no"?>
<!-- Uploaded to: SVG Repo, www.svgrepo.com, Generator: SVG Repo Mixer Tools -->

<svg
   fill="#FF0000"
   height="16"
   width="16"
   version="1.1"
   id="Capa_1"
   viewBox="0 0 6.02438 6.02438"
   xml:space="preserve"
   sodipodi:docname="ascending.svg"
   inkscape:version="1.3 (0e150ed, 2023-07-21)"
   xmlns:inkscape="http://www.inkscape.org/namespaces/inkscape"
   xmlns:sodipodi="http://sodipodi.sourceforge.net/DTD/sodipodi-0.dtd"
   xmlns="http://www.w3.org/2000/svg"
   xmlns:svg="http://www.w3.org/2000/svg"><defs
   id="defs6">&#10;	&#10;	&#10;	&#10;	&#10;	&#10;	&#10;</defs><sodipodi:namedview
   id="namedview6"
   pagecolor="#ffffff"
   bordercolor="#000000"
   borderopacity="0.25"
   inkscape:showpageshadow="2"
   inkscape:pageopacity="0.0"
   inkscape:pagecheckerboard="0"
   inkscape:deskcolor="#d1d1d1"
   inkscape:zoom="6.5781355"
   inkscape:cx="6.5368067"
   inkscape:cy="17.482157"
   inkscape:window-width="1312"
   inkscape:window-height="449"
   inkscape:window-x="0"
   inkscape:window-y="737"
   inkscape:window-maximized="0"
   inkscape:current-layer="Capa_1" />&#10;<path
   d="M 3.1089849,0.3901716 V 0.1950858 C 3.1089849,0.08733992 3.0216449,0 2.9138991,0 H 0.1950858 C 0.08733991,0 0,0.08733992 0,0.1950858 v 0.1950858 c 0,0.10774589 0.08733991,0.1950858 0.1950858,0.1950858 h 2.7188133 c 0.1077458,0 0.1950858,-0.0873399 0.1950858,-0.1950858 z"
   id="path1"
   style="stroke-width:0.0195086" /><path
   d="M 2.5475474,1.2290405 H 0.1950858 C 0.08733991,1.2290405 0,1.3163805 0,1.4241263 V 1.6192121 C 0,1.726958 0.08733991,1.8142979 0.1950858,1.8142979 h 2.3524616 c 0.1077459,0 0.1950858,-0.08734 0.1950858,-0.1950858 V 1.4241263 c 0,-0.1077458 -0.08734,-0.1950858 -0.1950858,-0.1950858 z"
   id="path2"
   style="stroke-width:0.0195086" /><path
   d="M 2.1811568,2.4580811 H 0.1950858 C 0.08733991,2.4580811 0,2.545421 0,2.6531669 v 0.1950858 c 0,0.1077459 0.08733991,0.1950858 0.1950858,0.1950858 h 1.986071 c 0.1077459,0 0.1950858,-0.08734 0.1950858,-0.1950858 V 2.6531669 c 0,-0.1077459 -0.08734,-0.1950858 -0.1950858,-0.1950858 z"
   id="path3"
   style="stroke-width:0.0195086" /><path
   d="M 1.8147857,3.8236817 H 0.1950858 C 0.08733991,3.8236817 0,3.9110216 0,4.0187675 v 0.1950858 c 0,0.1077459 0.08733991,0.1950858 0.1950858,0.1950858 h 1.6196999 c 0.1077263,0 0.1950858,-0.08734 0.1950858,-0.1950858 V 4.0187675 c 0,-0.1077459 -0.08734,-0.1950858 -0.1950858,-0.1950858 z"
   id="path4"
   style="stroke-width:0.0195086" /><path
   d="M 1.448395,5.0527222 H 0.1950858 C 0.08733991,5.0527222 0,5.1400621 0,5.247808 V 5.4428938 C 0,5.5506397 0.08733991,5.6379796 0.1950858,5.6379796 H 1.448395 c 0.1077264,0 0.1950858,-0.08734 0.1950858,-0.1950858 V 5.247808 c 0,-0.1077459 -0.08734,-0.1950858 -0.1950858,-0.1950858 z"
   id="path5"
   style="stroke-width:0.0195086" /><path
   d="M 5.8192143,1.6700518 5.6812692,1.807997 C 5.6446902,1.844576 5.5950612,1.865138 5.543324,1.865138 5.491587,1.865138 5.4419574,1.844576 5.4053593,1.807997 L 4.7344007,1.1370384 v 4.398463 c 0,0.1077459 -0.08734,0.1950858 -0.1950858,0.1950858 H 4.3442291 c -0.1077459,0 -0.1950858,-0.08734 -0.1950858,-0.1950858 V 1.1370579 L 3.4781847,1.8080165 c -0.036598,0.036579 -0.086208,0.057141 -0.1379451,0.057141 -0.051737,0 -0.1013666,-0.020562 -0.1379452,-0.057141 L 3.0643297,1.6700714 c -0.076161,-0.076181 -0.076161,-0.1997094 0,-0.2758904 L 4.3038269,0.1546839 c 0.0381,-0.0381 0.088023,-0.057141 0.1379451,-0.057141 0.049923,0 0.099864,0.01904 0.1379452,0.057141 L 5.8192143,1.394181 c 0.076181,0.076181 0.076181,0.1997093 0,0.2758708 z"
   id="path6"
   style="stroke-width:0.0195086" />&#10;</svg>
