<?xml version="1.0" encoding="UTF-8" standalone="no"?>
<svg
   height="20"
   viewBox="0 -960 800 800"
   width="20"
   fill="#e8eaed"
   version="1.1"
   id="svg1"
   sodipodi:docname="save.svg"
   inkscape:version="1.3.2 (091e20e, 2023-11-25)"
   xmlns:inkscape="http://www.inkscape.org/namespaces/inkscape"
   xmlns:sodipodi="http://sodipodi.sourceforge.net/DTD/sodipodi-0.dtd"
   xmlns="http://www.w3.org/2000/svg"
   xmlns:svg="http://www.w3.org/2000/svg">
  <defs
     id="defs1" />
  <sodipodi:namedview
     id="namedview1"
     pagecolor="#ffffff"
     bordercolor="#000000"
     borderopacity="0.25"
     inkscape:showpageshadow="2"
     inkscape:pageopacity="0.0"
     inkscape:pagecheckerboard="0"
     inkscape:deskcolor="#d1d1d1"
     showguides="true"
     inkscape:zoom="10.639926"
     inkscape:cx="-5.874101"
     inkscape:cy="14.473785"
     inkscape:window-width="1312"
     inkscape:window-height="449"
     inkscape:window-x="0"
     inkscape:window-y="25"
     inkscape:window-maximized="0"
     inkscape:current-layer="svg1" />
  <path
     d="m 800,-782.22221 v 533.33332 q 0,36.66667 -26.11112,62.7778 Q 747.77777,-160 711.11113,-160 H 88.888873 Q 52.222235,-160 26.111117,-186.11109 0,-212.22222 0,-248.88889 v -622.22222 q 0,-36.66667 26.111117,-62.7778 Q 52.222235,-960 88.888873,-960 H 622.22222 Z m -88.88887,37.77776 -126.66668,-126.66666 H 88.888873 v 622.22222 H 711.11113 Z m -311.11111,451.11113 q 55.55552,0 94.44442,-38.8889 38.88891,-38.8889 38.88891,-94.44446 0,-55.55555 -38.88891,-94.44445 Q 455.55554,-560 400.00002,-560 q -55.55556,0 -94.44446,38.88887 -38.88891,38.8889 -38.88891,94.44445 0,55.55556 38.88891,94.44446 38.8889,38.8889 94.44446,38.8889 z M 133.33333,-648.88889 H 533.33335 V -826.66668 H 133.33333 Z m -44.444457,-95.55556 v 495.55556 -622.22222 z"
     id="path1"
     style="fill:#808080;stroke-width:1.11111" />
</svg>
